<?xml version="1.0" encoding="UTF-8" standalone="no"?>
<svg
   version="1.1"
   width="512"
   height="139"
   x="0"
   y="0"
   viewBox="0 0 512 139"
   xml:space="preserve"
   id="svg44"
   sodipodi:docname="beer.svg"
   inkscape:version="1.2.2 (732a01da63, 2022-12-09, custom)"
   inkscape:export-filename="../cf34b827/pt5l.png"
   inkscape:export-xdpi="150"
   inkscape:export-ydpi="150"
   xmlns:inkscape="http://www.inkscape.org/namespaces/inkscape"
   xmlns:sodipodi="http://sodipodi.sourceforge.net/DTD/sodipodi-0.dtd"
   xmlns="http://www.w3.org/2000/svg"
   xmlns:svg="http://www.w3.org/2000/svg"><defs
     id="defs48" /><sodipodi:namedview
     id="namedview46"
     pagecolor="#ffffff"
     bordercolor="#000000"
     borderopacity="0.25"
     inkscape:showpageshadow="2"
     inkscape:pageopacity="0.0"
     inkscape:pagecheckerboard="0"
     inkscape:deskcolor="#d1d1d1"
     showgrid="false"
     inkscape:zoom="1.2011719"
     inkscape:cx="224.78049"
     inkscape:cy="141.1122"
     inkscape:window-width="1854"
     inkscape:window-height="1010"
     inkscape:window-x="66"
     inkscape:window-y="34"
     inkscape:window-maximized="1"
     inkscape:current-layer="svg44" /><g
     id="g1732"
     transform="matrix(1.1405251,0,0,1.1405251,-57.262681,-445.39564)"><g
       id="g1719"
       transform="matrix(0.79561643,0,0,0.79561643,10.37541,262.23678)"><path
         fill="#73c369"
         d="m 145.29389,177.99461 -3.60103,-2.98158 a 14.840206,12.287337 0 0 1 -4.34638,-8.68832 H 63.581522 c 0,3.25895 -1.563664,6.38431 -4.346755,8.68864 l -3.601043,2.98157 a 14.840206,12.287337 0 0 0 -4.346369,8.68834 h 98.353285 c 0,-3.25897 -1.56367,-6.38432 -4.34675,-8.68865 z m -94.006535,8.68865 H 149.64064 V 298.65525 H 51.287355 Z"
         data-original="#73c369"
         id="path18"
         style="stroke-width:0.349589" /><path
         fill="#3c915a"
         d="m 100.464,186.68326 h 49.17664 V 298.65525 H 100.464 Z"
         data-original="#3c915a"
         id="path20"
         style="stroke-width:0.349589" /><path
         fill="#c8c8c3"
         d="M 140.42002,166.32471 H 60.50798 a 3.0735424,2.54482 0 0 1 0,-5.08964 h 79.91204 a 3.0735424,2.54482 0 0 1 0,5.08964 z"
         data-original="#c8c8c3"
         id="path22"
         style="stroke-width:0.349589" /><path
         fill="#3c915a"
         d="m 51.287355,298.65525 12.294167,10.17927 h 73.764958 l 12.29416,-10.17927 z m 94.006535,-120.66064 -3.60103,-2.98158 a 14.840206,12.287337 0 0 1 -4.34638,-8.68832 H 88.169843 c 0,3.25895 1.563664,6.38431 4.346755,8.68864 l 3.601031,2.98157 a 14.840206,12.287337 0 0 1 4.346371,8.68834 h 49.17664 c 0,-3.25897 -1.56367,-6.38432 -4.34675,-8.68865 z"
         data-original="#3c915a"
         id="path24"
         style="stroke-width:0.349589" /><path
         fill="#facc0a"
         d="M 118.90523,278.29671 H 82.02276 c -6.789842,0 -12.294166,-4.55745 -12.294166,-10.17928 v -63.62045 c 0,-5.62183 5.504324,-10.17928 12.294166,-10.17928 h 36.88247 c 6.78985,0 12.29417,4.55745 12.29417,10.17928 v 63.62045 c 0,5.62183 -5.50432,10.17928 -12.29417,10.17928 z M 51.287355,227.40034 h 18.441239 v 20.35855 H 51.287355 Z"
         data-original="#facc0a"
         id="path26"
         style="stroke-width:0.349589" /><path
         fill="#faa01e"
         d="m 131.1994,227.40034 h 18.44124 v 20.35855 H 131.1994 Z m -12.29417,50.89637 H 100.464 V 194.3177 h 18.44123 c 6.78985,0 12.29417,4.55745 12.29417,10.17928 v 63.62045 c 0,5.62183 -5.50432,10.17928 -12.29417,10.17928 z"
         data-original="#faa01e"
         id="path28"
         style="stroke-width:0.349589" /><path
         fill="#c8c8c3"
         d="M 134.27295,313.92416 H 66.655052 a 3.0735403,2.5448181 0 0 1 -3.07353,-2.54482 v -2.54482 h 73.764958 v 2.54482 a 3.0735403,2.5448181 0 0 1 -3.07353,2.54482 z"
         data-original="#c8c8c3"
         id="path32"
         style="stroke-width:0.349589" /><path
         fill="#a0a5aa"
         d="M 137.34648,308.83452 H 100.464 c 0,2.81108 -2.751971,5.08964 -6.147084,5.08964 h 39.956034 a 3.0735403,2.5448181 0 0 0 3.07353,-2.54482 z m 3.07354,-147.59945 H 97.390458 a 3.0735424,2.54482 0 0 1 0,5.08964 h 43.029562 a 3.0735424,2.54482 0 0 0 0,-5.08964 z"
         data-original="#a0a5aa"
         id="path34"
         style="stroke-width:0.349589" /></g><text
       xml:space="preserve"
       style="font-weight:600;font-size:151.327px;font-family:'VK Sans Display';-inkscape-font-specification:'VK Sans Display Semi-Bold';fill:#facc0a;fill-opacity:1;stroke-width:1.13496"
       x="139.50549"
       y="510.48672"
       id="text418"><tspan
         sodipodi:role="line"
         id="tspan416"
         x="139.50549"
         y="510.48672"
         style="fill:#facc0a;fill-opacity:1;stroke-width:1.13496">PT5L</tspan></text></g></svg>
