<svg xmlns="http://www.w3.org/2000/svg" viewBox="0 0 124 64">
    <g clip-path="url(#clip0_3617_15073)">
        <path d="M120.3 8.67322L115.397 3.86244H111.979L107.075 8.67322L108.833 10.3977L112.446 6.85145V27.0308H81.3047V29.4686H114.93V6.85145L118.545 10.3977L120.3 8.67322Z" fill="white"/>
        <path d="M21.6675 19.766C19.8706 19.766 18.8213 20.7793 18.4475 22.0519H17.8443V19.8917H15.1758V33.0474H17.8443V27.6043H18.4475C18.8048 28.8607 19.854 29.7159 21.6675 29.7159C23.5698 29.7159 25.6683 27.7604 25.6683 24.743C25.6683 21.7256 23.5698 19.766 21.6675 19.766ZM20.4282 27.4463C18.811 27.4463 17.8505 26.2304 17.8505 24.743C17.8505 23.2556 18.8048 22.0377 20.4282 22.0377C22.0517 22.0377 23.008 23.2535 23.008 24.743C23.008 26.2324 22.0579 27.4463 20.4282 27.4463Z" fill="white"/>
        <path d="M83.4084 3.73274C80.2606 3.73274 78.1621 5.68826 78.1621 8.70564C78.1621 11.723 80.2606 13.6866 83.4084 13.6866C86.5561 13.6866 88.6546 11.7331 88.6546 8.71375C88.6546 5.69434 86.5561 3.73274 83.4084 3.73274ZM83.4084 11.4109C81.7911 11.4109 80.8307 10.1951 80.8307 8.70564C80.8307 7.2162 81.7911 6.00236 83.4084 6.00236C85.0256 6.00236 85.9881 7.21823 85.9881 8.70564C85.9881 10.1931 85.0442 11.4109 83.4084 11.4109V11.4109Z" fill="white"/>
        <path d="M13.2187 3.85638H10.5501V11.2549H6.58447V3.85638H3.91797V13.5225H12.4359V16.2096H14.9971V11.2549H13.2187V3.85638Z" fill="white"/>
        <path d="M98.656 2.82689C100.825 2.82689 101.981 1.74477 102.14 0H100.06C99.9882 0.628198 99.6329 1.15102 98.656 1.15102C97.7306 1.15102 97.3217 0.628198 97.2494 0H95.1777C95.3285 1.74477 96.5038 2.82689 98.656 2.82689Z" fill="white"/>
        <path d="M95.5002 3.85638L93.4739 11.1678L93.2963 12.6512H92.78L92.8853 9.77158V3.85638H90.2539V13.5225H95.2874L97.2971 6.21111L97.4747 4.72776H97.9911L97.8837 7.60734V13.5225H100.515V3.85638H95.5002Z" fill="white"/>
        <path d="M23.8596 6.21111L24.0372 4.72776H24.5515L24.4462 7.60734V13.5225H27.0776V3.85638H22.0627L20.0344 11.1678L19.8568 12.6512H19.3404L19.4478 9.77158V3.85638H16.8164V13.5225H21.8499L23.8596 6.21111Z" fill="white"/>
        <path d="M33.9673 13.5224H34.3061V17.0119H36.9209V13.5224H37.2576C40.6202 13.5224 42.4688 11.4817 42.4688 8.6893C42.4688 5.93131 40.583 3.90891 37.365 3.85623H36.9209V0.192413H34.3061V3.85623H33.8537C30.5986 3.90891 28.75 5.93131 28.75 8.6893C28.7583 11.4817 30.642 13.5224 33.9673 13.5224ZM36.9209 5.94955H37.2576C38.9843 6.00223 39.7837 7.1877 39.7837 8.6893C39.7837 10.2253 38.9843 11.3926 37.2576 11.4453H36.9209V5.94955ZM33.9508 5.94955H34.3061V11.4453H33.9157C32.2427 11.3926 31.4248 10.2294 31.4248 8.6893C31.4248 7.1877 32.2427 6.00223 33.9508 5.94955V5.94955Z" fill="white"/>
        <path d="M3.49023 29.5576H6.1588V22.1591H10.3723V29.5576H13.0409V19.8915H3.49023V29.5576Z" fill="white"/>
        <path d="M55.9906 22.4914H53.7682V19.8915H51.0996V29.5577H55.9906C58.5332 29.5577 59.915 28.1391 59.915 26.0154C59.915 23.8917 58.5332 22.4914 55.9906 22.4914ZM55.6002 27.2901H53.7682V24.6901H55.6002C56.8973 24.6901 57.2526 25.1603 57.2526 25.9992C57.2526 26.8017 56.8973 27.2901 55.6002 27.2901V27.2901Z" fill="white"/>
        <path d="M64.1022 19.8915H61.4336V29.5576H64.1022V19.8915Z" fill="white"/>
        <path d="M72.6206 24.6901V24.2017C74.4527 23.9221 74.9856 23.2595 74.9856 22.0902C74.9856 20.7993 73.8826 19.8915 71.8729 19.8915H66.2363V29.5577H72.034C74.2751 29.5577 75.5185 28.7025 75.5185 27.0793C75.5185 25.6851 74.7894 24.9333 72.6206 24.6901ZM68.8677 21.8531H71.1397C72.0113 21.8531 72.2964 22.2199 72.2964 22.7427C72.2964 23.2655 72.0113 23.6161 71.1397 23.6161H68.8677V21.8531ZM71.4289 27.6123H68.8677V25.5453H71.4289C72.4967 25.5453 72.8169 25.9627 72.8169 26.5909C72.8169 27.2191 72.4967 27.6042 71.4289 27.6042V27.6123Z" fill="white"/>
        <path d="M61.2131 3.73274C58.0653 3.73274 55.9668 5.68826 55.9668 8.70564C55.9668 11.723 58.0653 13.6866 61.2131 13.6866C64.3608 13.6866 66.4593 11.7331 66.4593 8.71375C66.4593 5.69434 64.3608 3.73274 61.2131 3.73274ZM61.2131 11.4109C59.5958 11.4109 58.6354 10.1951 58.6354 8.70564C58.6354 7.2162 59.5958 6.00236 61.2131 6.00236C62.8303 6.00236 63.8031 7.22431 63.8031 8.70564C63.8031 10.187 62.8489 11.4109 61.2131 11.4109V11.4109Z" fill="white"/>
        <path d="M54.7129 8.70564C54.7129 5.68826 52.6144 3.73274 50.7121 3.73274C48.9151 3.73274 47.8659 4.74596 47.4941 6.01857H46.8889V3.85636H44.2266V17.012H46.8951V11.569H47.5003C47.8556 12.8254 48.9048 13.6785 50.7183 13.6785C52.6206 13.6866 54.7129 11.725 54.7129 8.70564ZM49.4666 11.4109C47.8494 11.4109 46.8889 10.1951 46.8889 8.70564C46.8889 7.2162 47.8494 6.00236 49.4666 6.00236C51.0839 6.00236 52.0464 7.21823 52.0464 8.70564C52.0464 10.193 51.1087 11.4109 49.4728 11.4109H49.4666Z" fill="white"/>
        <path d="M74.4447 8.65501V8.16663C76.2767 7.88698 76.8158 7.22434 76.8158 6.05508C76.8158 4.76221 75.7128 3.85638 73.7032 3.85638H68.0645V13.5225H73.8622C76.1032 13.5225 77.3487 12.6674 77.3487 11.0442C77.3446 9.64797 76.6093 8.89818 74.4447 8.65501ZM70.6938 5.81798H72.9658C73.8374 5.81798 74.1204 6.18477 74.1204 6.70759C74.1204 7.23042 73.8374 7.58099 72.9658 7.58099H70.6938V5.81798ZM73.255 11.5771H70.6938V9.51017H73.255C74.3207 9.51017 74.6409 9.92762 74.6409 10.5558C74.6409 11.184 74.3207 11.569 73.255 11.569V11.5771Z" fill="white"/>
        <path d="M45.497 19.766C43.7001 19.766 42.6508 20.7793 42.277 22.0519H41.6739V19.8917H39.0156V33.0474H41.6842V27.6043H42.2873C42.6446 28.8607 43.6939 29.7159 45.5073 29.7159C47.4096 29.7159 49.5081 27.7604 49.5081 24.743C49.5081 21.7256 47.3993 19.766 45.497 19.766ZM44.2577 27.4422C42.6405 27.4422 41.6801 26.2263 41.6801 24.7389C41.6801 23.2515 42.6405 22.0336 44.2577 22.0336C45.875 22.0336 46.8375 23.2495 46.8375 24.7389C46.8375 26.2284 45.8874 27.4463 44.2516 27.4463L44.2577 27.4422Z" fill="white"/>
        <path d="M32.1603 19.766C29.0126 19.766 26.9141 21.7195 26.9141 24.7389C26.9141 27.7583 29.0126 29.7118 32.1603 29.7118C35.3081 29.7118 37.4066 27.7563 37.4066 24.7389C37.4066 21.7216 35.2998 19.766 32.1603 19.766ZM32.1603 27.4422C30.541 27.4422 29.5826 26.2263 29.5826 24.7389C29.5826 23.2515 30.541 22.0336 32.1603 22.0336C33.7796 22.0336 34.7401 23.2495 34.7401 24.7389C34.7401 26.2284 33.7962 27.4463 32.1603 27.4463V27.4422Z" fill="white"/>
        <path d="M108.133 63.3316H15.0778C13.0978 63.3316 11.1371 62.9489 9.3078 62.2055C7.47847 61.4621 5.8163 60.3724 4.4162 58.9988C3.01609 57.6251 1.90547 55.9943 1.14774 54.1996C0.390005 52.4048 0 50.4812 0 48.5385C0 46.5959 0.390005 44.6722 1.14774 42.8774C1.90547 41.0827 3.01609 39.4519 4.4162 38.0782C5.8163 36.7046 7.47847 35.6149 9.3078 34.8715C11.1371 34.1281 13.0978 33.7455 15.0778 33.7455H108.133C110.113 33.7455 112.073 34.1281 113.903 34.8715C115.732 35.6149 117.394 36.7046 118.794 38.0782C120.194 39.4519 121.305 41.0827 122.063 42.8774C122.821 44.6722 123.211 46.5959 123.211 48.5385C123.211 50.4812 122.821 52.4048 122.063 54.1996C121.305 55.9943 120.194 57.6251 118.794 58.9988C117.394 60.3724 115.732 61.4621 113.903 62.2055C112.073 62.9489 110.113 63.3316 108.133 63.3316V63.3316ZM15.0778 35.1518C13.2715 35.13 11.4787 35.4602 9.80342 36.1234C8.12815 36.7865 6.60371 37.7693 5.31851 39.0148C4.0333 40.2603 3.0129 41.7437 2.31646 43.3791C1.62002 45.0145 1.26141 46.7692 1.26141 48.5415C1.26141 50.3139 1.62002 52.0686 2.31646 53.704C3.0129 55.3393 4.0333 56.8228 5.31851 58.0683C6.60371 59.3138 8.12815 60.2966 9.80342 60.9597C11.4787 61.6229 13.2715 61.9531 15.0778 61.9313H108.133C109.939 61.9531 111.732 61.6229 113.407 60.9597C115.082 60.2966 116.607 59.3138 117.892 58.0683C119.177 56.8228 120.198 55.3393 120.894 53.704C121.591 52.0686 121.949 50.3139 121.949 48.5415C121.949 46.7692 121.591 45.0145 120.894 43.3791C120.198 41.7437 119.177 40.2603 117.892 39.0148C116.607 37.7693 115.082 36.7865 113.407 36.1234C111.732 35.4602 109.939 35.13 108.133 35.1518H15.0778Z" fill="#03FE33"/>
        <path d="M22.0628 43.4097C23.074 43.3875 24.068 43.6694 24.9113 44.2174C25.7545 44.7655 26.4067 45.5535 26.7803 46.4758L24.4216 47.2863C24.2345 46.8242 23.9089 46.4287 23.4876 46.1523C23.0664 45.8758 22.5695 45.7314 22.0628 45.7381C20.5984 45.7381 19.4768 46.8952 19.4768 48.4252C19.4768 49.9552 20.5984 51.1305 22.0628 51.1305C22.5711 51.133 23.0682 50.9848 23.4891 50.7053C23.9101 50.4257 24.2351 50.028 24.4216 49.5641L26.7803 50.3746C26.4061 51.2961 25.7536 52.0833 24.9104 52.6306C24.0672 53.1779 23.0736 53.4591 22.0628 53.4366C19.0761 53.4366 16.8145 51.2703 16.8145 48.4353C16.8145 45.6003 19.0761 43.4097 22.0628 43.4097Z" fill="white"/>
        <path d="M38.1883 49.3127H30.6184C30.7819 49.8219 31.0918 50.2738 31.5108 50.6143C31.9297 50.9549 32.44 51.1695 32.9803 51.2324C33.5205 51.2953 34.0678 51.2039 34.5564 50.969C35.045 50.7342 35.4541 50.3659 35.7345 49.9085L37.8475 50.8427C36.9903 52.3544 35.3545 53.4183 33.225 53.4183C30.2384 53.4183 27.9746 51.2521 27.9746 48.4171C27.9746 45.5821 30.2012 43.4158 33.1382 43.4158C36.4202 43.4097 38.7212 46.0968 38.1883 49.3127ZM30.6576 47.3836H35.6147C35.4615 46.8544 35.1341 46.3898 34.6834 46.0625C34.2328 45.7351 33.6844 45.5633 33.1238 45.574C32.5692 45.576 32.03 45.753 31.5859 46.0789C31.1418 46.4048 30.8163 46.8622 30.6576 47.3836V47.3836Z" fill="white"/>
        <path d="M47.9252 50.7434C47.9252 52.3849 46.12 53.4123 43.6848 53.4123C41.8961 53.4123 40.1735 52.8327 39.1016 51.7911L40.5081 50.095C41.4025 50.9339 42.809 51.2501 43.6848 51.2501C44.7692 51.2501 45.2628 50.8448 45.2628 50.3544C45.2628 49.6269 44.4635 49.4404 43.3048 49.4404H41.8775V47.3836H43.3048C44.4635 47.3836 45.2628 47.1972 45.2628 46.4697C45.2628 45.9853 44.7692 45.574 43.6848 45.574C42.809 45.574 41.4025 45.8921 40.5081 46.7493L39.1016 45.0329C40.1653 43.9873 41.8961 43.4118 43.6848 43.4118C46.12 43.4118 47.9252 44.4371 47.9252 46.0988C47.9252 47.1627 47.099 48.1516 45.1678 48.413C47.0887 48.6724 47.9252 49.6613 47.9252 50.7434Z" fill="white"/>
        <path d="M54.7147 43.4097C57.7013 43.4097 59.965 45.574 59.965 48.411C59.965 51.248 57.6931 53.4123 54.7147 53.4123C51.7363 53.4123 49.4746 51.246 49.4746 48.411C49.4746 45.576 51.728 43.4097 54.7147 43.4097ZM54.7147 51.1102C56.1977 51.1102 57.3006 49.9531 57.3006 48.4049C57.3006 46.8567 56.1977 45.7179 54.7147 45.7179C53.2317 45.7179 52.1287 46.881 52.1287 48.411C52.1287 49.941 53.2503 51.1163 54.7147 51.1163V51.1102Z" fill="white"/>
        <path d="M61.7324 53.2238V43.5961H64.3018V47.3086H68.7508V43.5961H71.3182V53.2238H68.7508V49.5154H64.3018V53.2238H61.7324Z" fill="white"/>
        <path d="M74.929 43.436C75.3798 43.4413 75.8102 43.6206 76.1272 43.935C76.4442 44.2494 76.6222 44.6737 76.6227 45.1159C76.6227 45.5588 76.4434 45.9835 76.1242 46.2966C75.8051 46.6098 75.3722 46.7857 74.9208 46.7857C74.4694 46.7857 74.0365 46.6098 73.7173 46.2966C73.3981 45.9835 73.2188 45.5588 73.2188 45.1159C73.2177 44.8952 73.2612 44.6764 73.3467 44.4722C73.4323 44.268 73.5582 44.0825 73.7172 43.9263C73.8762 43.7702 74.0651 43.6464 74.2731 43.5622C74.4811 43.4781 74.704 43.4352 74.929 43.436V43.436ZM74.929 50.0604C75.3798 50.0658 75.8102 50.245 76.1272 50.5594C76.4442 50.8739 76.6222 51.2981 76.6227 51.7403C76.6227 52.1832 76.4434 52.6079 76.1242 52.9211C75.8051 53.2342 75.3722 53.4101 74.9208 53.4101C74.4694 53.4101 74.0365 53.2342 73.7173 52.9211C73.3981 52.6079 73.2188 52.1832 73.2188 51.7403C73.2166 51.5189 73.2593 51.2993 73.3443 51.0942C73.4294 50.8891 73.5551 50.7026 73.7142 50.5455C73.8733 50.3885 74.0627 50.264 74.2712 50.1794C74.4797 50.0947 74.7033 50.0515 74.929 50.0523V50.0604Z" fill="white"/>
        <path d="M89.3836 43.5961H94.0433V53.2238H91.6288V44.1554L88.9643 53.2238H84.3047V43.5961H86.7213V52.7394L89.3836 43.5961Z" fill="white"/>
        <path d="M101.268 43.5961H105.93V53.2238H103.513V44.1554L100.851 53.2238H96.1914V43.5961H98.6059V52.7394L101.268 43.5961Z" fill="white"/>
    </g>
    <defs>
        <clipPath id="clip0_3617_15073">
            <rect width="123.345" height="64" fill="white"/>
        </clipPath>
    </defs>
</svg>